<?xml version="1.0" encoding="UTF-8"?>
<svg id="Layer_1" data-name="Layer 1" xmlns="http://www.w3.org/2000/svg" viewBox="0 0 327.26 84.11">
  <defs>
    <style>
      .cls-1 {
        fill: none;
      }

      .cls-1, .cls-2, .cls-3, .cls-4 {
        stroke-width: 0px;
      }

      .cls-2 {
        fill: #535235;
      }

      .cls-3 {
        fill: #c3b095;
      }

      .cls-4 {
        fill: #fff;
      }
    </style>
  </defs>
  <g>
    <g>
      <path class="cls-2" d="m121.41,61.86c-.36,0-.66.14-.87.44l-1.39-4.74.08-.05c1.72,1.77,4.27,2.62,6.56,2.62,1.77,0,2.96-.37,2.96-1.29s-1.09-1.04-3.74-1.22c-2.36-.17-5.41-.78-5.41-3.59,0-2.48,2.8-3.81,6.02-3.81,2.07,0,3.03.49,3.71.49.34,0,.54-.08.8-.39l1.04,4.44-.07.03c-1.33-1.53-3.43-2.24-5.61-2.24-1.8,0-3.13.48-3.13,1.33,0,.92,1.72,1.05,3.16,1.17,2.94.24,6.04.82,6.04,3.65,0,2.41-2.5,3.79-5.61,3.79-2.26,0-3.91-.63-4.54-.63Z"/>
      <path class="cls-2" d="m146.66,54.45c0,2.18-1.68,4.04-4.21,4.04h-4.59v2.35c0,.7.34,1.17.95,1.43v.03h-4.62v-.03c.61-.25.95-.73.95-1.43v-8.97c0-.7-.34-1.17-.95-1.43v-.03h8.26c2.53,0,4.21,1.87,4.21,4.05Zm-2.77,0c0-.73-.46-1.67-1.94-1.67h-4.1v3.33h4.1c1.48,0,1.94-.93,1.94-1.67Z"/>
      <path class="cls-2" d="m148.87,56.35c0-3.64,2.92-6.2,7.07-6.2s7.07,2.57,7.07,6.2-2.92,6.2-7.07,6.2-7.07-2.57-7.07-6.2Zm11.35,0c0-2.19-1.77-3.74-4.28-3.74s-4.28,1.55-4.28,3.74,1.77,3.74,4.28,3.74,4.28-1.55,4.28-3.74Z"/>
      <path class="cls-2" d="m178.86,62.27v.03h-4.88v-.03c.61-.29.7-.75.36-1.43l-1.29-2.55h-3.98v2.55c0,.7.34,1.17.95,1.43v.03h-4.62v-.03c.61-.25.95-.73.95-1.43v-8.97c0-.7-.34-1.17-.95-1.43v-.03h8.41c2.46,0,4.22,1.63,4.22,3.94,0,1.63-.88,2.94-2.28,3.55l1.6,3.08c.32.61.9,1.04,1.51,1.29Zm-9.79-6.32h4.37c1.14,0,1.85-.66,1.85-1.58s-.71-1.58-1.85-1.58h-4.37v3.16Z"/>
      <path class="cls-2" d="m192.99,53.77l-.03.03c-.87-.71-1.63-.99-2.82-.99h-2.06v8.02c0,.7.34,1.17.95,1.43v.03h-4.62v-.03c.61-.25.95-.73.95-1.43v-8.02h-2.06c-1.19,0-1.95.27-2.82.99l-.03-.03.97-3.37h10.61l.97,3.37Z"/>
      <path class="cls-2" d="m194.89,62.27c.61-.25.95-.73.95-1.43v-8.97c0-.7-.34-1.17-.95-1.43v-.03h4.62v.03c-.61.25-.95.73-.95,1.43v8.97c0,.7.34,1.17.95,1.43v.03h-4.62v-.03Z"/>
      <path class="cls-2" d="m202.34,62.27c.61-.25.95-.73.95-1.43v-8.97c0-.7-.34-1.17-.95-1.43v-.03h4.11l6.21,8.55v-7.09c0-.7-.34-1.17-.95-1.43v-.03h4.54v.03c-.61.25-.95.73-.95,1.43v8.97c0,.7.34,1.17.95,1.43v.03h-4.11l-6.2-8.6v7.14c0,.7.34,1.17.95,1.43v.03h-4.54v-.03Z"/>
      <path class="cls-2" d="m218.64,56.35c0-3.5,3.11-6.2,7.26-6.2,1.82,0,2.82.37,3.54.37.31,0,.58-.07.82-.32l1.12,4.33-.05.03c-1.29-1.31-3.28-1.95-5.25-1.95-2.65,0-4.64,1.43-4.64,3.74s1.82,3.74,4.55,3.74c1.28,0,2.41-.34,3.03-.68v-2.11h-1.24c-1.09,0-1.73.27-2.35.95l-.08-.03.66-2.97h6.42v.03c-.61.26-.95.73-.95,1.43v3.16c0,.61.05,1.09.25,1.41-2.01.36-3.16,1.27-6,1.27-4.15,0-7.09-2.7-7.09-6.2Z"/>
      <path class="cls-2" d="m240.91,56.35c0-3.5,2.86-6.2,7-6.2,1.89,0,2.82.44,3.55.44.31,0,.53-.03.8-.27l1.12,4.64-.05.03c-1.22-1.34-3.11-2.38-5.25-2.38-2.43,0-4.38,1.43-4.38,3.74s1.95,3.74,4.38,3.74,4.03-1.02,5.25-2.55l.05.03-1.12,4.81c-.24-.24-.46-.34-.8-.34-.73,0-1.7.51-3.55.51-4.15,0-7-2.7-7-6.2Z"/>
      <path class="cls-2" d="m267.42,58.9l-.97,3.4h-10.35v-.03c.61-.25.95-.73.95-1.43v-8.97c0-.7-.34-1.17-.95-1.43v-.03h4.62v.03c-.61.25-.95.73-.95,1.43v8.02h4.79c1.11,0,1.97-.24,2.8-1.02l.05.03Z"/>
      <path class="cls-2" d="m270.09,56.95v-5.08c0-.7-.34-1.17-.95-1.43v-.03h4.62v.03c-.61.25-.95.73-.95,1.43v4.83c0,1.96,1.41,3.31,3.28,3.31s3.28-1.36,3.28-3.31v-4.83c0-.7-.34-1.17-.95-1.43v-.03h4.62v.03c-.61.25-.95.73-.95,1.43v5.08c0,3.21-2.57,5.61-6,5.61s-6-2.4-6-5.61Z"/>
      <path class="cls-2" d="m285.75,62.27c.61-.25.95-.73.95-1.43v-8.97c0-.7-.34-1.17-.95-1.43v-.03h8.31c2.62,0,4.11,1.5,4.11,3.23,0,.85-.36,1.82-1.44,2.46,1.43.46,2.11,1.5,2.11,2.74,0,1.97-1.7,3.47-4.3,3.47h-8.79v-.03Zm8.14-7.12c1.05,0,1.56-.53,1.56-1.26s-.51-1.26-1.56-1.26h-4.47v2.52h4.47Zm.31,4.93c1.31,0,1.87-.65,1.87-1.38s-.56-1.38-1.87-1.38h-4.78v2.75h4.78Z"/>
    </g>
    <g>
      <g>
        <path class="cls-2" d="m117.56,31.13c0-5.86,3.46-9.87,8.39-9.87s8.39,4.01,8.39,9.87-3.46,9.87-8.39,9.87-8.39-4.01-8.39-9.87Zm12.75,0c0-3.6-1.77-6.08-4.36-6.08s-4.33,2.48-4.33,6.08,1.77,6.08,4.33,6.08,4.36-2.48,4.36-6.08Z"/>
        <path class="cls-2" d="m153.69,40.62v.05h-6.84v-.05c.74-.41.98-1.04.46-2.32l-1.69-4.2h-3.35v4.28c0,1.25.55,1.88,1.36,2.23v.05h-6.68v-.05c.82-.35,1.36-.98,1.36-2.23v-14.5c0-1.25-.55-1.88-1.36-2.23v-.06h8.58c3.95,0,6.76,2.62,6.76,6.24,0,2.32-1.12,4.22-2.97,5.29l2.26,5.4c.49,1.17,1.28,1.74,2.1,2.1Zm-11.42-10.11h3.05c1.77,0,2.97-1.14,2.97-2.64s-1.2-2.67-2.97-2.67h-3.05v5.31Z"/>
        <path class="cls-2" d="m158.07,40.13c-.49,0-.9.19-1.23.68l-1.33-7.85.11-.05c1.77,2.7,4.52,4.36,6.92,4.36,1.74,0,2.89-.71,2.89-1.91s-1.61-1.83-4.17-2.7c-2.43-.87-5.42-2.21-5.42-5.72,0-3.16,2.89-5.61,6.92-5.61,2.23,0,3.3.63,4.06.63.44,0,.74-.14,1.04-.52l.87,6.95-.11.05c-1.31-2.21-3.52-3.49-5.8-3.49-1.8,0-3,.82-3,1.91,0,1.23,1.58,1.74,3.24,2.4,2.86.98,6.43,2.34,6.4,6.05,0,3.27-2.86,5.64-6.68,5.64-2.34,0-3.87-.82-4.71-.82Z"/>
        <path class="cls-2" d="m186.9,35.77l-1.31,4.91h-13.43v-.05c.82-.35,1.36-.98,1.36-2.23v-14.5c0-1.25-.55-1.88-1.36-2.23v-.06h13.14l1.23,4.93-.05.06c-1.23-1.17-2.43-1.42-4.11-1.42h-4.88v4.03h3.9c1.31,0,1.93-.57,2.32-1.42h.05v6.38h-.05c-.38-.84-1.01-1.42-2.32-1.42h-3.9v4.36h5.18c1.69,0,2.92-.25,4.14-1.39l.11.05Z"/>
        <path class="cls-2" d="m192.07,40.13c-.49,0-.9.19-1.23.68l-1.33-7.85.11-.05c1.77,2.7,4.52,4.36,6.92,4.36,1.74,0,2.89-.71,2.89-1.91s-1.61-1.83-4.17-2.7c-2.43-.87-5.42-2.21-5.42-5.72,0-3.16,2.89-5.61,6.92-5.61,2.23,0,3.3.63,4.06.63.44,0,.74-.14,1.04-.52l.87,6.95-.11.05c-1.31-2.21-3.52-3.49-5.8-3.49-1.8,0-3,.82-3,1.91,0,1.23,1.58,1.74,3.24,2.4,2.86.98,6.43,2.34,6.4,6.05,0,3.27-2.86,5.64-6.68,5.64-2.34,0-3.87-.82-4.71-.82Z"/>
        <path class="cls-2" d="m223.14,40.62v.05h-6.68v-.05c.82-.35,1.36-.98,1.36-2.23v-5.48h-6.35v5.48c0,1.25.55,1.88,1.36,2.23v.05h-6.68v-.05c.82-.35,1.36-.98,1.36-2.23v-14.5c0-1.25-.55-1.88-1.36-2.23v-.06h6.68v.06c-.82.35-1.36.98-1.36,2.23v5.26h6.32v-5.26c0-1.25-.55-1.88-1.36-2.23v-.06h6.68v.06c-.82.35-1.36.98-1.36,2.23l.03,14.5c0,1.25.55,1.88,1.36,2.23Z"/>
        <path class="cls-2" d="m225.73,31.13c0-5.86,3.46-9.87,8.39-9.87s8.39,4.01,8.39,9.87-3.46,9.87-8.39,9.87-8.39-4.01-8.39-9.87Zm12.75,0c0-3.6-1.77-6.08-4.36-6.08s-4.33,2.48-4.33,6.08,1.77,6.08,4.33,6.08,4.36-2.48,4.36-6.08Z"/>
        <path class="cls-2" d="m259.87,35.77l-1.31,4.91h-13.43v-.05c.82-.35,1.36-.98,1.36-2.23v-14.5c0-1.25-.55-1.88-1.36-2.23v-.06h13.14l1.23,4.93-.05.06c-1.23-1.17-2.43-1.42-4.11-1.42h-4.88v4.03h3.9c1.31,0,1.93-.57,2.32-1.42h.05v6.38h-.05c-.38-.84-1.01-1.42-2.32-1.42h-3.9v4.36h5.18c1.69,0,2.92-.25,4.14-1.39l.11.05Z"/>
        <path class="cls-2" d="m270.39,40.62c.82-.35,1.36-.98,1.36-2.23v-14.5c0-1.25-.55-1.88-1.36-2.23v-.06h8.86c3.68,0,6,2.43,6,5.29,0,1.55-.71,2.97-2.32,3.95,2.07.76,3.11,2.37,3.11,4.28,0,3.27-2.78,5.56-6.46,5.56h-9.18v-.05Zm8.48-11.36c1.61,0,2.43-.98,2.43-2.1s-.82-2.13-2.43-2.13h-3.19v4.22h3.19Zm.35,7.98c2.02,0,2.81-1.2,2.81-2.32s-.79-2.29-2.81-2.29h-3.54v4.61h3.54Z"/>
        <path class="cls-2" d="m306.14,40.62v.05h-6.84v-.05c.82-.35,1.2-.95.87-2.18l-.6-2.18h-5.94l-.6,2.18c-.33,1.23.05,1.83.87,2.18v.05h-6.76v-.05c.82-.35,1.55-.95,1.91-2.15l4.31-14.66c.35-1.2,0-1.8-.82-2.15v-.06h8.18v.06c-.82.35-1.17.95-.82,2.15l4.33,14.66c.35,1.2,1.09,1.8,1.91,2.15Zm-7.52-7.85l-2.02-7.44-2.02,7.44h4.03Z"/>
        <path class="cls-2" d="m315.02,38.38c0,1.25.54,1.88,1.36,2.23v.05h-6.68v-.05c.82-.35,1.36-.98,1.36-2.23v-4.11l-4.85-10.55c-.52-1.14-1.33-1.72-2.15-2.07v-.06h6.87v.06c-.76.38-1.01,1.01-.49,2.23l2.62,6.21,2.64-6.21c.52-1.23.27-1.85-.49-2.23v-.06h6.81v.06c-.82.35-1.64.93-2.15,2.07l-4.85,10.55v4.11Z"/>
      </g>
      <path class="cls-2" d="m113.57,38.36l-.03-14.46c0-1.25.54-1.88,1.36-2.23v-.05h-6.66v.05c.81.35,1.36.98,1.36,2.23v5.24h-6.3v-5.24c0-1.25.54-1.88,1.36-2.23v-.05h-6.66v.05c.82.35,1.36.98,1.36,2.23v5.24h-1.75v.03c1,.38,1.75,1.18,1.75,2.91v6.28c0,1.25-.54,1.87-1.36,2.23v.05h6.66v-.05c-.82-.35-1.36-.98-1.36-2.23v-5.46h6.33v5.46c0,1.25-.54,1.87-1.36,2.23v.05h6.66v-.05c-.82-.35-1.36-.98-1.36-2.23Z"/>
    </g>
  </g>
  <g>
    <path id="path4533" class="cls-2" d="m71.04,69.1c-9.56,9.56-44.54,9.56-54.1,0-9.56-9.56-9.56-44.54,0-54.1,9.56-9.56,44.54-9.56,54.1,0,9.56,9.56,9.56,44.54,0,54.1h0Z"/>
    <path class="cls-3" d="m43.99,5.79c10.05,0,22.81,2.03,28.52,7.74,5.71,5.71,7.74,18.48,7.74,28.52s-2.03,22.81-7.74,28.52-18.48,7.74-28.52,7.74-22.81-2.03-28.52-7.74c-5.71-5.71-7.74-18.48-7.74-28.52s2.03-22.81,7.74-28.52c5.71-5.71,18.48-7.74,28.52-7.74m0-1.68c-10.38,0-23.64,2.16-29.71,8.23-6.07,6.07-8.23,19.33-8.23,29.71s2.16,23.64,8.23,29.71c6.07,6.07,19.33,8.23,29.71,8.23s23.64-2.16,29.71-8.23c6.07-6.07,8.23-19.33,8.23-29.71s-2.16-23.64-8.23-29.71c-6.07-6.07-19.33-8.23-29.71-8.23h0Z"/>
    <g>
      <g>
        <path class="cls-1" d="m60.83,56.42c0-2.24-1.68-3.8-4.09-3.8h-5.45v7.59h5.4c2.48,0,4.14-1.53,4.14-3.8Z"/>
        <path class="cls-1" d="m59.07,41.87c0-2.06-1.64-3.5-3.99-3.5h-3.76v7h3.76c2.35,0,3.99-1.44,3.99-3.5Z"/>
        <path class="cls-4" d="m52.55,18.9v-.22h-10.83v.22c1.81.98,2.46,2.37,2.46,5.05v6.98h5.91v-6.98c0-2.68.66-4.08,2.46-5.05Z"/>
        <path class="cls-4" d="m31.83,23.95c0-2.68.65-4.08,2.46-5.05v-.22h-10.83v.22c1.81.98,2.46,2.37,2.46,5.05,0,0,0,6.74,0,8.21h-2.84v.22c1.68.91,2.83,2.56,2.84,4.76v8.99c0,2.68-.66,4.06-2.47,5.04v.22h10.84v-.23c-1.81-.98-2.46-2.35-2.46-5.03v-8.99h23.26c3.07,0,5.22,2,5.22,4.73s-2.15,4.73-5.22,4.73h-4.99v-8.24h-5.91v7.75c0,2.68-.66,4.08-2.47,5.05v.22h15.02c3.17,0,5.32,2.2,5.32,5.03s-2.15,5.03-5.37,5.03h-6.63v-8.82h-5.86v8.48c0,2.68-.66,4.08-2.46,5.05v.22h15.68c6.15,0,10.69-4.2,10.69-9.57,0-3.81-2.39-7.08-5.91-8.3,2.44-1.32,4.1-4.05,4.1-7.17,0-5.08-4.34-9.17-10.15-9.17h-24.33v-8.21Z"/>
      </g>
      <path class="cls-3" d="m64.6,48.29c1.85-1.73,2.94-4.24,2.94-6.96,0-5.83-5-10.4-11.38-10.4h-4.84v-6.98c0-2.52.61-3.32,1.82-3.97l.65-.35v-2.18h-13.29v2.18l.65.35c1.2.65,1.81,1.44,1.81,3.97v6.98h-9.89v-6.98c0-2.53.61-3.32,1.81-3.97l.65-.35v-2.18h-13.29v2.18l.65.35c1.21.65,1.82,1.44,1.82,3.97v6.98h-2.84v2.18l.65.35c1.4.76,2.18,2.07,2.2,3.69v8.98c0,2.51-.62,3.3-1.83,3.96l-.65.35v2.18h13.3v-2.19l-.65-.35c-1.21-.65-1.82-1.44-1.82-3.95v-7.76h9.89v7.75c0,2.52-.61,3.32-1.82,3.97l-.65.35v2.18h2.49v8.48c0,2.52-.61,3.32-1.82,3.97l-.65.35v2.18h16.91c6.8,0,11.92-4.64,11.92-10.8,0-3.51-1.84-6.72-4.75-8.51Zm-22.87-29.4v-.22h10.83v.22c-1.81.98-2.46,2.37-2.46,5.05v6.98h-5.91v-6.98c0-2.68-.65-4.08-2.46-5.05Zm15.7,47.48h-15.68v-.22c1.81-.98,2.46-2.37,2.46-5.05v-8.48h4.06c.99,0,1.8.81,1.8,1.8v7.02h6.63c3.22,0,5.37-2.15,5.37-5.03s-2.15-5.03-5.32-5.03h-15.02v-.22c1.81-.98,2.47-2.37,2.47-5.05v-7.75h4.11c.99,0,1.8.81,1.8,1.8v6.44h4.99c3.07,0,5.22-2.05,5.22-4.73s-2.15-4.73-5.22-4.73h-25.28s0,.22,0,.22c1.35.34,2.03,1.21,2.03,2.7v6.08c0,2.68.66,4.06,2.46,5.03v.23h-10.84v-.22c1.81-.98,2.47-2.35,2.47-5.04v-8.99c-.01-2.21-1.16-3.86-2.84-4.76v-.22h2.84c0-1.47,0-8.21,0-8.21,0-2.68-.66-4.08-2.46-5.05v-.22h10.83v.22c-1.81.98-2.46,2.37-2.46,5.05v8.21h24.33c5.81,0,10.15,4.1,10.15,9.17,0,3.12-1.66,5.86-4.1,7.17,3.51,1.22,5.91,4.49,5.91,8.3,0,5.37-4.54,9.57-10.69,9.57Zm-6.13-6.16v-7.59h5.45c2.41,0,4.09,1.56,4.09,3.8s-1.66,3.8-4.14,3.8h-5.4Zm.03-14.84v-7h3.76c2.35,0,3.99,1.44,3.99,3.5s-1.64,3.5-3.99,3.5h-3.76Z"/>
    </g>
  </g>
</svg>